<svg xmlns="http://www.w3.org/2000/svg" viewBox="0 0 695.62 522.61"><defs><style>.cls-1{fill:#b3b3b3;}.cls-2{fill:#333;}</style></defs><title>12Ativo 1</title><g id="Camada_2" data-name="Camada 2"><g id="Camada_1-2" data-name="Camada 1"><path class="cls-1" d="M582.58,515.63H113A106.06,106.06,0,0,1,7,409.57V113A106.07,106.07,0,0,1,113,7H582.58A106.07,106.07,0,0,1,688.65,113V409.57A106.06,106.06,0,0,1,582.58,515.63Z"/><path class="cls-2" d="M113,13.94A99.22,99.22,0,0,0,13.94,113V409.57A99.21,99.21,0,0,0,113,508.66H582.58a99.2,99.2,0,0,0,99.09-99.09V113a99.21,99.21,0,0,0-99.09-99.1ZM582.58,522.6H113a113.16,113.16,0,0,1-113-113V113A113.17,113.17,0,0,1,113,0H582.58a113.17,113.17,0,0,1,113,113V409.57a113.16,113.16,0,0,1-113,113Z"/><path class="cls-2" d="M329,190.41H7a7,7,0,0,1,0-13.95H329a11.88,11.88,0,0,0,11.87-11.86v-42a7,7,0,1,1,13.94,0v42A25.84,25.84,0,0,1,329,190.41Z"/><path class="cls-2" d="M688.65,346.15H7A7,7,0,0,1,7,332.2H688.65a7,7,0,0,1,0,13.95Z"/><path class="cls-2" d="M347.81,129.58a6.94,6.94,0,0,1-4.7-1.83L216.42,12.12a7,7,0,0,1,9.4-10.3l122,111.34L469.8,1.82a7,7,0,1,1,9.4,10.3L352.51,127.75a6.94,6.94,0,0,1-4.7,1.83Z"/><path class="cls-2" d="M347.81,407a7,7,0,0,1-7-7V339.18a7,7,0,1,1,13.94,0V400a7,7,0,0,1-7,7Z"/><path class="cls-2" d="M474.5,522.6a7,7,0,0,1-4.7-1.82l-122-111.33-122,111.33a7,7,0,1,1-9.4-10.29L343.11,394.86a7,7,0,0,1,9.4,0L479.2,510.49a7,7,0,0,1-4.7,12.11Z"/><path class="cls-2" d="M261.18,346.15a7,7,0,0,1-7-7V183.43a7,7,0,0,1,13.95,0V339.18a7,7,0,0,1-7,7Z"/><path class="cls-2" d="M434.44,346.15a7,7,0,0,1-7-7V202.27a25.84,25.84,0,0,1,25.81-25.81H688.65a7,7,0,0,1,0,13.95H453.28a11.87,11.87,0,0,0-11.86,11.86V339.18a7,7,0,0,1-7,7Z"/></g></g></svg>