<svg xmlns="http://www.w3.org/2000/svg" viewBox="0 0 591.8 435.41"><defs><style>.cls-1{fill:#FFF;}</style></defs><title>12Ativo 3</title><g id="Camada_2" data-name="Camada 2"><g id="Camada_1-2" data-name="Camada 1"><path id="path23" class="cls-1" d="M276.37,116.11C276.37,44.16,195.8,0,137.92,0c-38.7,0-62.8,19-62.8,49.43V69H58.76C30.26,69,0,99.22,0,127.89v218.5A20.43,20.43,0,0,0,20.41,366.8H73.54c.35,0,.7,0,.87-.18a20.49,20.49,0,0,0,19.53-20.41V87.78h44.33a44.3,44.3,0,0,1,44.16,44.16V346.21a20.43,20.43,0,0,0,20.41,20.41H256a20.42,20.42,0,0,0,20.4-20.41c.18-95,0-230.1,0-230.1ZM24.1,348a5.1,5.1,0,0,1-5.1-5.1V128.07C19,110.13,41,88,58.76,88H75.12V343.05a5.11,5.11,0,0,1-5.1,5.1H24.1Zm233.45-4.92a5,5,0,0,1-5.1,4.92H206.36a5.1,5.1,0,0,1-5.11-5.1V132.12A63.21,63.21,0,0,0,138.1,69H93.94V49.43C93.94,38,99.57,19,137.92,19,212,19,257.37,75.65,257.37,116.11c.18,0,.18,131.94.18,226.94ZM571.22,68.61H518.09A20.43,20.43,0,0,0,497.68,89V347.44H453.53a44.29,44.29,0,0,1-44.16-44.15V89A20.43,20.43,0,0,0,389,68.61H335.83A20.42,20.42,0,0,0,315.43,89V319.3c0,71.95,80.57,116.11,138.45,116.11,38.7,0,62.8-19,62.8-49.44V366.44H533c28.5,0,58.76-30.25,58.76-58.93V89a20.69,20.69,0,0,0-20.58-20.41ZM497.68,386.15c0,11.43-5.63,30.43-44,30.43-74.06,0-119.45-56.65-119.45-97.11,0,0-.18-131.23,0-226.94a5,5,0,0,1,5.1-4.92h46.09a5.11,5.11,0,0,1,5.11,5.1V303.64A63.22,63.22,0,0,0,453.7,366.8h44.16Zm75.12-78.64c0,17.94-22,40.11-39.76,40.11H516.68V92.53a5,5,0,0,1,5.1-4.92h46.09a5.11,5.11,0,0,1,5.11,5.1v214.8Z"/></g></g></svg>