<svg xmlns="http://www.w3.org/2000/svg" viewBox="0 0 86.05 108.72"><defs><style>.cls-1{fill:#fff;}</style></defs><title>12Ativo 2</title><g id="Camada_2" data-name="Camada 2"><g id="Camada_1-2" data-name="Camada 1"><path class="cls-1" d="M86.05,52.23c-1.15,17.87-3.52,34-11,48.88-2,4-4.19,9.59-9.78,6.92-3.76-1.8-3.12-7.07-1.37-10.7C77.8,68.27,77.4,39.39,63.58,10.4,62,7,61.21,2.13,65.9.39s6.94,2.69,8.68,6.07C82.22,21.25,83.9,37.54,86.05,52.23Z"/><path class="cls-1" d="M62.23,53.83c-1.35,13.56-2.87,26.46-9.77,38-2,3.39-4.22,7.31-8.92,5.29s-3.93-6.08-2-9.84c11.28-21.82,10.89-43.65.19-65.53C39.93,18.06,38.56,14,43.43,12c4.53-1.94,7,1.44,9.11,5C59.51,28.48,60.62,41.46,62.23,53.83Z"/><path class="cls-1" d="M38.3,54.56C36.89,64.88,35.77,74,31.14,82.19c-1.77,3.12-4.61,5-8.1,3.72-4-1.51-3.72-5.39-2.24-8.26,7.77-15.09,7.71-30.07.54-45.31-1.69-3.59-2.81-8.05,2.64-9.42,4.61-1.16,6.83,2.36,8.53,6.22A66.29,66.29,0,0,1,38.3,54.56Z"/><path class="cls-1" d="M16.9,54.15c-.17,6.34-2.84,11.64-5.51,16.83C9.8,74.07,6.76,75.89,3.3,74.51-.49,73-.47,69.43,1.08,66.38,4.84,59,5.41,51.47,2.42,43.79.8,39.6-2.44,34.13,3.14,32.13c6.14-2.2,8.67,4.25,10.51,9C15.25,45.27,15.85,49.8,16.9,54.15Z"/></g></g></svg>